# xmcd
#
# Track frame offsets: 
#        164
#        27071
#        71667
#        115083
#        158880
#        177319
#        193612
#        215641
#        234145
#        254431
#        284843
#
# Disc length: 4103 seconds
#
# Revision: 0
# Processed by: cddbd v1.5.2PL0 Copyright (c) Steve Scherf et al.
# Submitted via: ExactAudioCopy v1.0b3
#
DISCID=9e10050b
DTITLE=Foghat - Live II [CD2]
DYEAR=2007
DGENRE=Blooze Rock
TTITLE0=Califoria Blues
TTITLE1=I Just Wanna Make Love
TTITLE2=Chateau Lafitte'59 Boogie
TTITLE3=Slow Ride 
TTITLE4=Trouble Trouble (Studio)
TTITLE5=Chevrolet (Studio)
TTITLE6=I'm A Rock N Roller (Studio)
TTITLE7=I Feel Fine (Studio)
TTITLE8=My Babe (Studio)
TTITLE9=Self Medicated (Studio)
TTITLE10=Road Fever (Studio)
EXTD=
EXTT0=
EXTT1=
EXTT2=
EXTT3=
EXTT4=
EXTT5=
EXTT6=
EXTT7=
EXTT8=
EXTT9=
EXTT10=
PLAYORDER=
